<?xml version="1.0" standalone="no"?>
<!DOCTYPE svg PUBLIC "-//W3C//DTD SVG 20010904//EN"
 "http://www.w3.org/TR/2001/REC-SVG-20010904/DTD/svg10.dtd">
<svg version="1.0" xmlns="http://www.w3.org/2000/svg"
 width="260.000000pt" height="260.000000pt" viewBox="0 0 260.000000 260.000000"
 preserveAspectRatio="xMidYMid meet">
<metadata>
Created by potrace 1.14, written by Peter Selinger 2001-2017
</metadata>
<g transform="translate(0.000000,260.000000) scale(0.100000,-0.100000)"
fill="#000000" stroke="none">
<path d="M1167 2285 c-156 -43 -283 -156 -343 -304 l-23 -55 -75 -2 c-93 -2
-164 -33 -226 -100 -60 -65 -83 -124 -83 -211 0 -96 42 -186 114 -243 92 -73
73 -71 750 -68 l604 3 56 26 c110 52 187 146 216 263 14 58 14 77 4 133 -35
190 -170 311 -358 321 -81 4 -83 5 -103 37 -32 51 -120 129 -181 159 -114 55
-245 70 -352 41z"/>
<path d="M741 1163 c-19 -10 -44 -31 -55 -46 -20 -27 -21 -43 -24 -305 -2
-249 -1 -280 15 -311 52 -101 174 -101 225 0 16 30 18 66 18 299 0 233 -2 269
-18 299 -34 68 -102 95 -161 64z"/>
<path d="M1135 1173 c-32 -9 -65 -34 -81 -64 -10 -21 -14 -68 -14 -186 0 -137
3 -162 19 -189 37 -61 117 -77 179 -36 45 29 52 60 52 229 0 179 -10 212 -75
239 -35 14 -46 15 -80 7z"/>
<path d="M1491 1163 c-19 -10 -44 -31 -55 -46 -20 -27 -21 -43 -24 -361 -3
-372 0 -395 57 -433 65 -44 151 -20 184 50 15 30 17 77 17 364 0 292 -2 332
-18 362 -34 68 -102 95 -161 64z"/>
<path d="M1885 1173 c-32 -9 -65 -34 -81 -64 -10 -21 -14 -68 -14 -186 0 -137
3 -162 19 -189 37 -61 117 -77 179 -36 45 29 52 60 52 229 0 179 -10 212 -75
239 -35 14 -46 15 -80 7z"/>
</g>
</svg>
