<?xml version="1.0" standalone="no"?>
<!DOCTYPE svg PUBLIC "-//W3C//DTD SVG 20010904//EN"
 "http://www.w3.org/TR/2001/REC-SVG-20010904/DTD/svg10.dtd">
<svg version="1.0" xmlns="http://www.w3.org/2000/svg"
 width="650.000000pt" height="650.000000pt" viewBox="0 0 650.000000 650.000000"
 preserveAspectRatio="xMidYMid meet">
<metadata>
Created by potrace 1.14, written by Peter Selinger 2001-2017
</metadata>
<g transform="translate(0.000000,650.000000) scale(0.100000,-0.100000)"
fill="#000000" stroke="none">
<path d="M3055 6429 c-38 -5 -76 -6 -82 -4 -7 2 -13 1 -13 -3 0 -4 -28 -13
-63 -19 -144 -28 -477 -163 -477 -194 0 -7 -3 -9 -6 -6 -9 8 -118 -68 -214
-149 -212 -179 -390 -448 -475 -718 -25 -79 -41 -114 -48 -109 -7 4 -20 6 -29
5 -10 -2 -18 1 -18 5 0 5 -15 10 -32 11 -88 5 -229 3 -278 -3 -30 -4 -63 -7
-73 -7 -9 1 -17 -4 -17 -10 0 -5 -6 -8 -14 -5 -8 3 -17 3 -21 -1 -4 -4 -10 -7
-13 -8 -36 -6 -73 -18 -78 -25 -3 -5 -10 -6 -16 -3 -6 4 -13 3 -17 -2 -3 -5
-31 -21 -61 -36 -86 -42 -130 -71 -174 -113 -12 -11 -23 -20 -26 -20 -22 0
-209 -227 -214 -260 -1 -7 -10 -25 -21 -41 -10 -16 -17 -29 -15 -29 2 0 -3
-11 -10 -25 -8 -14 -15 -28 -16 -32 -1 -5 -3 -11 -4 -15 -1 -5 -2 -11 -1 -15
0 -5 -4 -8 -10 -8 -6 0 -9 -9 -6 -20 3 -11 1 -20 -5 -20 -5 0 -7 -4 -3 -9 3
-5 1 -12 -4 -16 -6 -3 -8 -12 -4 -20 3 -8 0 -15 -6 -15 -7 0 -10 -10 -7 -25 3
-13 1 -27 -3 -30 -5 -2 -8 -22 -7 -42 1 -21 0 -42 -3 -48 -7 -13 -8 -175 -1
-175 3 0 6 -15 7 -33 1 -29 6 -61 17 -112 3 -11 5 -21 6 -22 2 -2 4 -7 5 -13
1 -5 4 -12 5 -15 1 -3 4 -9 5 -15 1 -5 4 -12 5 -15 1 -3 4 -9 5 -15 1 -5 3
-11 5 -12 1 -2 3 -10 5 -18 6 -30 58 -130 67 -130 5 0 6 -5 3 -10 -3 -6 1 -13
9 -16 9 -3 14 -9 11 -14 -2 -4 5 -16 15 -28 11 -12 20 -24 20 -28 0 -8 7 -16
88 -99 95 -97 174 -160 186 -148 3 3 6 1 6 -5 0 -7 6 -12 14 -12 8 0 16 -4 18
-9 1 -5 10 -11 18 -13 8 -2 21 -9 28 -16 8 -7 17 -10 22 -7 5 3 11 1 15 -5 4
-6 11 -8 16 -5 5 4 9 1 9 -5 0 -6 4 -9 9 -6 5 4 11 2 13 -4 1 -5 12 -11 23
-13 11 -2 27 -7 35 -10 8 -4 26 -9 40 -11 14 -3 25 -5 25 -7 0 -1 9 -3 20 -5
11 -2 34 -6 50 -9 36 -8 3645 -13 3645 -5 0 3 15 6 33 7 71 5 116 11 129 19
14 9 15 9 62 19 16 3 34 9 40 13 6 3 18 7 26 9 8 1 16 6 18 12 2 5 10 7 18 4
8 -3 14 1 14 8 0 7 3 9 6 6 4 -4 31 7 61 23 29 16 55 28 58 27 2 -1 14 6 25
16 11 9 23 17 26 17 17 0 161 120 226 188 73 77 167 202 151 202 -4 0 -3 4 3
8 14 9 77 122 68 122 -4 0 -2 6 3 13 9 10 33 73 39 100 1 4 3 9 4 12 1 3 4 10
5 15 1 6 3 11 5 13 2 2 9 34 14 57 1 8 6 22 10 31 4 9 6 20 5 25 -1 5 0 11 1
14 11 26 21 320 10 320 -3 0 -6 21 -8 48 -1 26 -2 55 -2 65 -1 9 -5 17 -10 17
-4 0 -7 11 -5 25 1 14 -1 25 -5 25 -6 0 -8 8 -11 48 -1 9 -7 23 -12 30 -6 8
-12 22 -14 33 -3 20 -83 191 -93 199 -4 3 -15 21 -26 40 -10 19 -24 39 -30 45
-5 5 -28 32 -50 60 -45 57 -138 147 -189 183 -19 14 -35 29 -35 34 0 4 -6 8
-13 8 -7 0 -22 8 -33 18 -34 30 -228 121 -305 142 -143 40 -254 52 -406 46
l-141 -5 -28 47 c-67 115 -227 300 -336 389 -49 40 -183 130 -243 163 -33 19
-63 38 -66 43 -3 5 -8 8 -10 6 -2 -1 -51 16 -109 38 -246 96 -517 132 -765
102z"/>
<path d="M1535 2863 c-27 -8 -62 -24 -76 -34 -15 -10 -31 -19 -35 -19 -9 0
-94 -90 -85 -90 3 0 1 -4 -5 -8 -14 -10 -57 -82 -49 -82 4 0 3 -6 -3 -12 -6
-7 -11 -16 -11 -20 -1 -5 -1 -9 -2 -10 0 -2 -3 -12 -6 -23 -9 -38 -9 -1720 1
-1733 5 -7 6 -15 3 -19 -4 -3 -2 -12 4 -20 6 -7 8 -13 4 -13 -4 0 -2 -7 5 -15
7 -8 10 -15 7 -15 -3 0 4 -17 16 -39 26 -45 93 -121 107 -121 5 0 10 -3 10 -8
0 -9 78 -52 105 -57 11 -2 20 -4 20 -5 0 -1 9 -4 20 -7 33 -8 155 -9 155 -1 0
4 6 5 14 2 8 -3 17 -1 20 5 4 6 13 8 20 5 8 -3 17 0 21 5 3 6 11 9 16 6 5 -4
9 -1 9 5 0 6 5 8 10 5 6 -3 13 1 16 9 3 9 9 14 14 11 11 -7 115 95 133 130 32
64 48 106 42 114 -3 5 -1 12 4 16 7 3 10 317 10 860 0 936 2 908 -59 1005 -34
52 -90 108 -140 137 -86 51 -217 66 -315 36z"/>
<path d="M2720 2861 c-30 -9 -69 -26 -85 -36 -41 -26 -115 -97 -110 -106 3 -4
-2 -9 -10 -13 -8 -3 -15 -12 -15 -21 0 -8 -4 -15 -9 -15 -5 0 -14 -13 -20 -30
-5 -16 -7 -30 -4 -30 3 0 -1 -7 -8 -17 -11 -13 -14 -104 -15 -493 0 -285 4
-487 9 -501 6 -13 12 -33 14 -43 5 -29 62 -118 92 -144 14 -13 44 -36 66 -50
22 -15 43 -30 46 -35 3 -4 10 -7 15 -6 5 1 11 0 14 -1 10 -3 45 -11 58 -12 6
-1 12 -4 12 -7 0 -9 123 -7 138 2 6 5 16 6 21 2 5 -3 13 0 16 6 4 5 13 8 21 5
8 -3 14 -1 14 4 0 6 8 10 19 10 10 0 24 7 31 15 7 8 16 13 20 10 4 -3 11 2 14
10 3 8 9 14 13 13 10 -3 83 71 83 83 0 5 5 9 11 9 5 0 8 4 4 9 -3 6 2 14 11
19 9 5 15 11 14 13 -2 5 7 33 21 67 5 13 7 27 4 32 -3 5 -2 11 3 13 6 4 7 914
1 955 -1 6 -7 12 -12 12 -5 0 -7 7 -4 15 4 8 2 17 -4 20 -5 4 -7 10 -5 14 3 4
-4 18 -15 29 -11 12 -16 22 -12 22 4 0 -1 7 -11 15 -11 8 -16 15 -11 15 11 0
-61 70 -103 99 -82 58 -227 76 -332 42z"/>
<path d="M3910 2862 c-130 -44 -226 -142 -264 -271 -14 -49 -16 -172 -16
-1096 0 -1137 -2 -1091 57 -1192 22 -38 88 -113 99 -113 3 0 21 -11 42 -25 79
-52 221 -71 307 -40 22 8 46 15 53 15 7 0 25 11 40 25 15 14 31 25 36 25 15 0
96 89 96 106 0 7 4 14 9 14 5 0 19 30 32 67 l22 67 1 1053 c1 579 -2 1054 -6
1056 -3 1 -8 16 -11 33 -5 34 -31 90 -55 117 -8 9 -13 17 -9 17 12 0 -73 78
-109 101 -61 38 -103 50 -189 55 -61 3 -93 0 -135 -14z"/>
<path d="M5100 2861 c-103 -34 -173 -88 -225 -176 -56 -96 -57 -102 -57 -595
0 -440 1 -457 22 -525 12 -38 28 -74 36 -78 8 -4 14 -13 14 -19 0 -6 18 -30
40 -54 22 -24 40 -41 40 -38 0 3 14 -5 31 -17 49 -35 152 -65 216 -63 66 1
166 28 188 50 8 9 15 12 15 7 0 -4 7 1 15 11 8 11 15 16 15 12 0 -11 72 63
100 102 12 19 31 61 41 94 17 55 19 99 19 512 0 496 -2 514 -60 606 -99 155
-283 225 -450 171z"/>
</g>
</svg>
